<svg xmlns="http://www.w3.org/2000/svg" viewBox="0 0 640 360" width="640" height="360" font-family="Poppins, Segoe UI, Arial, sans-serif">
<defs>
  <linearGradient id="g" x1="0" y1="0" x2="1" y2="1">
    <stop offset="0" stop-color="#4f46e5"/><stop offset="1" stop-color="#7c3aed"/>
  </linearGradient>
  <radialGradient id="glow" cx="0.82" cy="0.12" r="0.7">
    <stop offset="0" stop-color="#a78bfa" stop-opacity="0.55"/><stop offset="1" stop-color="#a78bfa" stop-opacity="0"/>
  </radialGradient>
</defs>
<rect width="640" height="360" fill="url(#g)"/>
<rect width="640" height="360" fill="url(#glow)"/>
<g stroke="#fff" stroke-opacity="0.06" stroke-width="1">
  <line x1="0" y1="0" x2="0" y2="360"/><line x1="55" y1="0" x2="55" y2="360"/><line x1="110" y1="0" x2="110" y2="360"/><line x1="165" y1="0" x2="165" y2="360"/><line x1="220" y1="0" x2="220" y2="360"/><line x1="275" y1="0" x2="275" y2="360"/><line x1="330" y1="0" x2="330" y2="360"/><line x1="385" y1="0" x2="385" y2="360"/><line x1="440" y1="0" x2="440" y2="360"/><line x1="495" y1="0" x2="495" y2="360"/><line x1="550" y1="0" x2="550" y2="360"/><line x1="605" y1="0" x2="605" y2="360"/>
  <line x1="0" y1="0" x2="640" y2="0"/><line x1="0" y1="55" x2="640" y2="55"/><line x1="0" y1="110" x2="640" y2="110"/><line x1="0" y1="165" x2="640" y2="165"/><line x1="0" y1="220" x2="640" y2="220"/><line x1="0" y1="275" x2="640" y2="275"/><line x1="0" y1="330" x2="640" y2="330"/>
</g>
<line x1="196.0" y1="210.0" x2="186.0" y2="210.0" stroke="#fff" stroke-opacity="0.4" stroke-width="2"/><line x1="202.1" y1="171.7" x2="192.6" y2="168.6" stroke="#fff" stroke-opacity="0.4" stroke-width="2"/><line x1="219.7" y1="137.1" x2="211.6" y2="131.2" stroke="#fff" stroke-opacity="0.4" stroke-width="2"/><line x1="247.1" y1="109.7" x2="241.2" y2="101.6" stroke="#fff" stroke-opacity="0.4" stroke-width="2"/><line x1="281.7" y1="92.1" x2="278.6" y2="82.6" stroke="#fff" stroke-opacity="0.4" stroke-width="2"/><line x1="320.0" y1="86.0" x2="320.0" y2="76.0" stroke="#fff" stroke-opacity="0.4" stroke-width="2"/><line x1="358.3" y1="92.1" x2="361.4" y2="82.6" stroke="#fff" stroke-opacity="0.4" stroke-width="2"/><line x1="392.9" y1="109.7" x2="398.8" y2="101.6" stroke="#fff" stroke-opacity="0.4" stroke-width="2"/><line x1="420.3" y1="137.1" x2="428.4" y2="131.2" stroke="#fff" stroke-opacity="0.4" stroke-width="2"/><line x1="437.9" y1="171.7" x2="447.4" y2="168.6" stroke="#fff" stroke-opacity="0.4" stroke-width="2"/><line x1="444.0" y1="210.0" x2="454.0" y2="210.0" stroke="#fff" stroke-opacity="0.4" stroke-width="2"/><path d="M202.0 210.0 A118 118 0 0 0 438.0 210.0" fill="none" stroke="#fff" stroke-opacity="0.22" stroke-width="18" stroke-linecap="round"/><path d="M202.0 210.0 A118 118 0 0 0 250.6 114.5" fill="none" stroke="#fff" stroke-opacity="0.9" stroke-width="18" stroke-linecap="round"/><line x1="320" y1="210" x2="263.6" y2="132.3" stroke="#fff" stroke-width="6" stroke-linecap="round"/><circle cx="320" cy="210" r="12" fill="#fff"/>
<text x="40" y="52" fill="#fff" fill-opacity="0.95" font-size="15" font-weight="700" letter-spacing="3">E-COMMERCE</text>
<text x="600" y="70" fill="#fff" fill-opacity="0.28" font-size="64" font-weight="800" text-anchor="end">26</text>
<text x="40" y="306" fill="#fff" font-size="34" font-weight="800">131 DAGs</text>
<text x="42" y="330" fill="#fff" fill-opacity="0.85" font-size="15" font-weight="500">&gt;0.5% recon gate</text>
</svg>