<svg xmlns="http://www.w3.org/2000/svg" viewBox="0 0 640 360" width="640" height="360" font-family="Poppins, Segoe UI, Arial, sans-serif">
<defs>
  <linearGradient id="g" x1="0" y1="0" x2="1" y2="1">
    <stop offset="0" stop-color="#4f46e5"/><stop offset="1" stop-color="#7c3aed"/>
  </linearGradient>
  <radialGradient id="glow" cx="0.82" cy="0.12" r="0.7">
    <stop offset="0" stop-color="#a78bfa" stop-opacity="0.55"/><stop offset="1" stop-color="#a78bfa" stop-opacity="0"/>
  </radialGradient>
</defs>
<rect width="640" height="360" fill="url(#g)"/>
<rect width="640" height="360" fill="url(#glow)"/>
<g stroke="#fff" stroke-opacity="0.06" stroke-width="1">
  <line x1="0" y1="0" x2="0" y2="360"/><line x1="55" y1="0" x2="55" y2="360"/><line x1="110" y1="0" x2="110" y2="360"/><line x1="165" y1="0" x2="165" y2="360"/><line x1="220" y1="0" x2="220" y2="360"/><line x1="275" y1="0" x2="275" y2="360"/><line x1="330" y1="0" x2="330" y2="360"/><line x1="385" y1="0" x2="385" y2="360"/><line x1="440" y1="0" x2="440" y2="360"/><line x1="495" y1="0" x2="495" y2="360"/><line x1="550" y1="0" x2="550" y2="360"/><line x1="605" y1="0" x2="605" y2="360"/>
  <line x1="0" y1="0" x2="640" y2="0"/><line x1="0" y1="55" x2="640" y2="55"/><line x1="0" y1="110" x2="640" y2="110"/><line x1="0" y1="165" x2="640" y2="165"/><line x1="0" y1="220" x2="640" y2="220"/><line x1="0" y1="275" x2="640" y2="275"/><line x1="0" y1="330" x2="640" y2="330"/>
</g>
<path d="M320.0 84.0 A96 96 0 0 1 366.2 264.1" fill="none" stroke="#fff" stroke-opacity="0.95" stroke-width="40"/><path d="M362.0 266.3 A96 96 0 0 1 236.5 227.3" fill="none" stroke="#fff" stroke-opacity="0.7" stroke-width="40"/><path d="M234.2 223.1 A96 96 0 0 1 248.4 116.1" fill="none" stroke="#fff" stroke-opacity="0.5" stroke-width="40"/><path d="M251.6 112.6 A96 96 0 0 1 334.3 85.1" fill="none" stroke="#fff" stroke-opacity="0.32" stroke-width="40"/>
<text x="40" y="52" fill="#fff" fill-opacity="0.95" font-size="15" font-weight="700" letter-spacing="3">E-COMMERCE</text>
<text x="600" y="70" fill="#fff" fill-opacity="0.28" font-size="64" font-weight="800" text-anchor="end">21</text>
<text x="40" y="306" fill="#fff" font-size="34" font-weight="800">100+</text>
<text x="42" y="330" fill="#fff" fill-opacity="0.85" font-size="15" font-weight="500">GT distributors</text>
</svg>