<svg xmlns="http://www.w3.org/2000/svg" viewBox="0 0 640 360" width="640" height="360" font-family="Poppins, Segoe UI, Arial, sans-serif">
<defs>
  <linearGradient id="g" x1="0" y1="0" x2="1" y2="1">
    <stop offset="0" stop-color="#f59e0b"/><stop offset="1" stop-color="#ea580c"/>
  </linearGradient>
  <radialGradient id="glow" cx="0.82" cy="0.12" r="0.7">
    <stop offset="0" stop-color="#fbbf24" stop-opacity="0.55"/><stop offset="1" stop-color="#fbbf24" stop-opacity="0"/>
  </radialGradient>
</defs>
<rect width="640" height="360" fill="url(#g)"/>
<rect width="640" height="360" fill="url(#glow)"/>
<g stroke="#fff" stroke-opacity="0.06" stroke-width="1">
  <line x1="0" y1="0" x2="0" y2="360"/><line x1="55" y1="0" x2="55" y2="360"/><line x1="110" y1="0" x2="110" y2="360"/><line x1="165" y1="0" x2="165" y2="360"/><line x1="220" y1="0" x2="220" y2="360"/><line x1="275" y1="0" x2="275" y2="360"/><line x1="330" y1="0" x2="330" y2="360"/><line x1="385" y1="0" x2="385" y2="360"/><line x1="440" y1="0" x2="440" y2="360"/><line x1="495" y1="0" x2="495" y2="360"/><line x1="550" y1="0" x2="550" y2="360"/><line x1="605" y1="0" x2="605" y2="360"/>
  <line x1="0" y1="0" x2="640" y2="0"/><line x1="0" y1="55" x2="640" y2="55"/><line x1="0" y1="110" x2="640" y2="110"/><line x1="0" y1="165" x2="640" y2="165"/><line x1="0" y1="220" x2="640" y2="220"/><line x1="0" y1="275" x2="640" y2="275"/><line x1="0" y1="330" x2="640" y2="330"/>
</g>
<path d="M120 210 L200 170 L280 195 L360 120 L440 150 L520 80 L520 250 L120 250 Z" fill="#fff" fill-opacity="0.14"/><path d="M120 210 L200 170 L280 195 L360 120 L440 150 L520 80" fill="none" stroke="#fff" stroke-width="4" stroke-linecap="round" stroke-linejoin="round"/><circle cx="120" cy="210" r="6" fill="#fff"/><circle cx="200" cy="170" r="6" fill="#fff"/><circle cx="280" cy="195" r="6" fill="#fff"/><circle cx="360" cy="120" r="6" fill="#fff"/><circle cx="440" cy="150" r="6" fill="#fff"/><circle cx="520" cy="80" r="6" fill="#fff"/>
<text x="40" y="52" fill="#fff" fill-opacity="0.95" font-size="15" font-weight="700" letter-spacing="3">RENEWABLE ENERGY</text>
<text x="600" y="70" fill="#fff" fill-opacity="0.28" font-size="64" font-weight="800" text-anchor="end">34</text>
<text x="40" y="306" fill="#fff" font-size="34" font-weight="800">47 archives</text>
<text x="42" y="330" fill="#fff" fill-opacity="0.85" font-size="15" font-weight="500">4+ yrs recovered</text>
</svg>