<svg xmlns="http://www.w3.org/2000/svg" viewBox="0 0 640 360" width="640" height="360" font-family="Poppins, Segoe UI, Arial, sans-serif">
<defs>
  <linearGradient id="g" x1="0" y1="0" x2="1" y2="1">
    <stop offset="0" stop-color="#f59e0b"/><stop offset="1" stop-color="#ea580c"/>
  </linearGradient>
  <radialGradient id="glow" cx="0.82" cy="0.12" r="0.7">
    <stop offset="0" stop-color="#fbbf24" stop-opacity="0.55"/><stop offset="1" stop-color="#fbbf24" stop-opacity="0"/>
  </radialGradient>
</defs>
<rect width="640" height="360" fill="url(#g)"/>
<rect width="640" height="360" fill="url(#glow)"/>
<g stroke="#fff" stroke-opacity="0.06" stroke-width="1">
  <line x1="0" y1="0" x2="0" y2="360"/><line x1="55" y1="0" x2="55" y2="360"/><line x1="110" y1="0" x2="110" y2="360"/><line x1="165" y1="0" x2="165" y2="360"/><line x1="220" y1="0" x2="220" y2="360"/><line x1="275" y1="0" x2="275" y2="360"/><line x1="330" y1="0" x2="330" y2="360"/><line x1="385" y1="0" x2="385" y2="360"/><line x1="440" y1="0" x2="440" y2="360"/><line x1="495" y1="0" x2="495" y2="360"/><line x1="550" y1="0" x2="550" y2="360"/><line x1="605" y1="0" x2="605" y2="360"/>
  <line x1="0" y1="0" x2="640" y2="0"/><line x1="0" y1="55" x2="640" y2="55"/><line x1="0" y1="110" x2="640" y2="110"/><line x1="0" y1="165" x2="640" y2="165"/><line x1="0" y1="220" x2="640" y2="220"/><line x1="0" y1="275" x2="640" y2="275"/><line x1="0" y1="330" x2="640" y2="330"/>
</g>
<line x1="200" y1="120" x2="330" y2="180" stroke="#fff" stroke-opacity="0.4" stroke-width="2.5"/><line x1="460" y1="110" x2="330" y2="180" stroke="#fff" stroke-opacity="0.4" stroke-width="2.5"/><line x1="150" y1="230" x2="330" y2="180" stroke="#fff" stroke-opacity="0.4" stroke-width="2.5"/><line x1="330" y1="180" x2="500" y2="250" stroke="#fff" stroke-opacity="0.4" stroke-width="2.5"/><line x1="330" y1="180" x2="300" y2="300" stroke="#fff" stroke-opacity="0.4" stroke-width="2.5"/><line x1="200" y1="120" x2="150" y2="230" stroke="#fff" stroke-opacity="0.4" stroke-width="2.5"/><line x1="460" y1="110" x2="500" y2="250" stroke="#fff" stroke-opacity="0.4" stroke-width="2.5"/><circle cx="200" cy="120" r="13" fill="#fff" fill-opacity="0.7"/><circle cx="460" cy="110" r="13" fill="#fff" fill-opacity="0.7"/><circle cx="150" cy="230" r="13" fill="#fff" fill-opacity="0.7"/><circle cx="330" cy="180" r="22" fill="#fff" fill-opacity="0.95"/><circle cx="500" cy="250" r="13" fill="#fff" fill-opacity="0.7"/><circle cx="300" cy="300" r="13" fill="#fff" fill-opacity="0.7"/>
<text x="40" y="52" fill="#fff" fill-opacity="0.95" font-size="15" font-weight="700" letter-spacing="3">RENEWABLE ENERGY</text>
<text x="600" y="70" fill="#fff" fill-opacity="0.28" font-size="64" font-weight="800" text-anchor="end">16</text>
<text x="40" y="306" fill="#fff" font-size="34" font-weight="800">245 plants · 10M+ rows</text>
<text x="42" y="330" fill="#fff" fill-opacity="0.85" font-size="15" font-weight="500">end-to-end EMS</text>
</svg>