<svg xmlns="http://www.w3.org/2000/svg" viewBox="0 0 640 360" width="640" height="360" font-family="Poppins, Segoe UI, Arial, sans-serif">
<defs>
  <linearGradient id="g" x1="0" y1="0" x2="1" y2="1">
    <stop offset="0" stop-color="#f59e0b"/><stop offset="1" stop-color="#ea580c"/>
  </linearGradient>
  <radialGradient id="glow" cx="0.82" cy="0.12" r="0.7">
    <stop offset="0" stop-color="#fbbf24" stop-opacity="0.55"/><stop offset="1" stop-color="#fbbf24" stop-opacity="0"/>
  </radialGradient>
</defs>
<rect width="640" height="360" fill="url(#g)"/>
<rect width="640" height="360" fill="url(#glow)"/>
<g stroke="#fff" stroke-opacity="0.06" stroke-width="1">
  <line x1="0" y1="0" x2="0" y2="360"/><line x1="55" y1="0" x2="55" y2="360"/><line x1="110" y1="0" x2="110" y2="360"/><line x1="165" y1="0" x2="165" y2="360"/><line x1="220" y1="0" x2="220" y2="360"/><line x1="275" y1="0" x2="275" y2="360"/><line x1="330" y1="0" x2="330" y2="360"/><line x1="385" y1="0" x2="385" y2="360"/><line x1="440" y1="0" x2="440" y2="360"/><line x1="495" y1="0" x2="495" y2="360"/><line x1="550" y1="0" x2="550" y2="360"/><line x1="605" y1="0" x2="605" y2="360"/>
  <line x1="0" y1="0" x2="640" y2="0"/><line x1="0" y1="55" x2="640" y2="55"/><line x1="0" y1="110" x2="640" y2="110"/><line x1="0" y1="165" x2="640" y2="165"/><line x1="0" y1="220" x2="640" y2="220"/><line x1="0" y1="275" x2="640" y2="275"/><line x1="0" y1="330" x2="640" y2="330"/>
</g>
<rect x="106" y="134" width="68" height="68" rx="16" fill="#fff" fill-opacity="0.14" stroke="#fff" stroke-opacity="0.5" stroke-width="2"/><circle cx="140" cy="168" r="11" fill="#fff" fill-opacity="0.9"/><path d="M180 168 H228" stroke="#fff" stroke-opacity="0.6" stroke-width="3" stroke-dasharray="3 7" stroke-linecap="round"/><rect x="234" y="134" width="68" height="68" rx="16" fill="#fff" fill-opacity="0.14" stroke="#fff" stroke-opacity="0.5" stroke-width="2"/><circle cx="268" cy="168" r="11" fill="#fff" fill-opacity="0.9"/><path d="M308 168 H356" stroke="#fff" stroke-opacity="0.6" stroke-width="3" stroke-dasharray="3 7" stroke-linecap="round"/><rect x="362" y="134" width="68" height="68" rx="16" fill="#fff" fill-opacity="0.14" stroke="#fff" stroke-opacity="0.5" stroke-width="2"/><circle cx="396" cy="168" r="11" fill="#fff" fill-opacity="0.9"/><path d="M436 168 H484" stroke="#fff" stroke-opacity="0.6" stroke-width="3" stroke-dasharray="3 7" stroke-linecap="round"/><rect x="490" y="134" width="68" height="68" rx="16" fill="#fff" fill-opacity="0.14" stroke="#fff" stroke-opacity="0.5" stroke-width="2"/><circle cx="524" cy="168" r="11" fill="#fff" fill-opacity="0.9"/>
<text x="40" y="52" fill="#fff" fill-opacity="0.95" font-size="15" font-weight="700" letter-spacing="3">RENEWABLE ENERGY</text>
<text x="600" y="70" fill="#fff" fill-opacity="0.28" font-size="64" font-weight="800" text-anchor="end">13</text>
<text x="40" y="306" fill="#fff" font-size="34" font-weight="800">8–12 hrs -&gt; &lt;=10 min</text>
<text x="42" y="330" fill="#fff" fill-opacity="0.85" font-size="15" font-weight="500">fault detection</text>
</svg>