<svg xmlns="http://www.w3.org/2000/svg" viewBox="0 0 640 360" width="640" height="360" font-family="Poppins, Segoe UI, Arial, sans-serif">
<defs>
  <linearGradient id="g" x1="0" y1="0" x2="1" y2="1">
    <stop offset="0" stop-color="#f59e0b"/><stop offset="1" stop-color="#ea580c"/>
  </linearGradient>
  <radialGradient id="glow" cx="0.82" cy="0.12" r="0.7">
    <stop offset="0" stop-color="#fbbf24" stop-opacity="0.55"/><stop offset="1" stop-color="#fbbf24" stop-opacity="0"/>
  </radialGradient>
</defs>
<rect width="640" height="360" fill="url(#g)"/>
<rect width="640" height="360" fill="url(#glow)"/>
<g stroke="#fff" stroke-opacity="0.06" stroke-width="1">
  <line x1="0" y1="0" x2="0" y2="360"/><line x1="55" y1="0" x2="55" y2="360"/><line x1="110" y1="0" x2="110" y2="360"/><line x1="165" y1="0" x2="165" y2="360"/><line x1="220" y1="0" x2="220" y2="360"/><line x1="275" y1="0" x2="275" y2="360"/><line x1="330" y1="0" x2="330" y2="360"/><line x1="385" y1="0" x2="385" y2="360"/><line x1="440" y1="0" x2="440" y2="360"/><line x1="495" y1="0" x2="495" y2="360"/><line x1="550" y1="0" x2="550" y2="360"/><line x1="605" y1="0" x2="605" y2="360"/>
  <line x1="0" y1="0" x2="640" y2="0"/><line x1="0" y1="55" x2="640" y2="55"/><line x1="0" y1="110" x2="640" y2="110"/><line x1="0" y1="165" x2="640" y2="165"/><line x1="0" y1="220" x2="640" y2="220"/><line x1="0" y1="275" x2="640" y2="275"/><line x1="0" y1="330" x2="640" y2="330"/>
</g>
<path d="M100 180 L100 180.0 L108 166.2 L116 153.9 L124 144.3 L132 138.1 L140 136.0 L148 138.0 L156 143.9 L164 153.1 L172 164.6 L180 177.3 L188 190.0 L196 201.6 L204 211.0 L212 217.3 L220 220.1 L228 219.0 L236 214.4 L244 206.6 L252 196.4 L260 185.0 L268 173.2 L276 162.3 L284 153.3 L292 146.9 L300 143.6 L308 143.9 L316 147.5 L324 154.0 L332 162.9 L340 173.2 L348 184.0 L356 194.2 L364 202.9 L372 209.3 L380 212.8 L388 213.3 L396 210.6 L404 205.2 L412 197.5 L420 188.2 L428 178.4 L436 168.9 L444 160.6 L452 154.3 L460 150.5 L468 149.4 L476 151.3 L484 155.8 L492 162.4 L500 170.6 L508 179.5 L516 188.3 L524 196.2 L532 202.4 L540 206.4" fill="none" stroke="#fff" stroke-width="4" stroke-linecap="round"/><line x1="110" y1="250" x2="110" y2="200" stroke="#fff" stroke-opacity="0.35" stroke-width="4" stroke-linecap="round"/><line x1="140" y1="250" x2="140" y2="240" stroke="#fff" stroke-opacity="0.35" stroke-width="4" stroke-linecap="round"/><line x1="170" y1="250" x2="170" y2="210" stroke="#fff" stroke-opacity="0.35" stroke-width="4" stroke-linecap="round"/><line x1="200" y1="250" x2="200" y2="180" stroke="#fff" stroke-opacity="0.35" stroke-width="4" stroke-linecap="round"/><line x1="230" y1="250" x2="230" y2="220" stroke="#fff" stroke-opacity="0.35" stroke-width="4" stroke-linecap="round"/><line x1="260" y1="250" x2="260" y2="190" stroke="#fff" stroke-opacity="0.35" stroke-width="4" stroke-linecap="round"/><line x1="290" y1="250" x2="290" y2="230" stroke="#fff" stroke-opacity="0.35" stroke-width="4" stroke-linecap="round"/><line x1="320" y1="250" x2="320" y2="200" stroke="#fff" stroke-opacity="0.35" stroke-width="4" stroke-linecap="round"/><line x1="350" y1="250" x2="350" y2="240" stroke="#fff" stroke-opacity="0.35" stroke-width="4" stroke-linecap="round"/><line x1="380" y1="250" x2="380" y2="210" stroke="#fff" stroke-opacity="0.35" stroke-width="4" stroke-linecap="round"/><line x1="410" y1="250" x2="410" y2="180" stroke="#fff" stroke-opacity="0.35" stroke-width="4" stroke-linecap="round"/><line x1="440" y1="250" x2="440" y2="220" stroke="#fff" stroke-opacity="0.35" stroke-width="4" stroke-linecap="round"/><line x1="470" y1="250" x2="470" y2="190" stroke="#fff" stroke-opacity="0.35" stroke-width="4" stroke-linecap="round"/><line x1="500" y1="250" x2="500" y2="230" stroke="#fff" stroke-opacity="0.35" stroke-width="4" stroke-linecap="round"/><line x1="530" y1="250" x2="530" y2="200" stroke="#fff" stroke-opacity="0.35" stroke-width="4" stroke-linecap="round"/>
<text x="40" y="52" fill="#fff" fill-opacity="0.95" font-size="15" font-weight="700" letter-spacing="3">RENEWABLE ENERGY</text>
<text x="600" y="70" fill="#fff" fill-opacity="0.28" font-size="64" font-weight="800" text-anchor="end">12</text>
<text x="40" y="306" fill="#fff" font-size="34" font-weight="800">245 plants</text>
<text x="42" y="330" fill="#fff" fill-opacity="0.85" font-size="15" font-weight="500">&lt;=10 min telemetry</text>
</svg>